<?xml version="1.0" encoding="UTF-8" standalone="no"?>
<svg
   xmlns:dc="http://purl.org/dc/elements/1.1/"
   xmlns:cc="http://creativecommons.org/ns#"
   xmlns:rdf="http://www.w3.org/1999/02/22-rdf-syntax-ns#"
   xmlns:svg="http://www.w3.org/2000/svg"
   xmlns="http://www.w3.org/2000/svg"
   xmlns:sodipodi="http://sodipodi.sourceforge.net/DTD/sodipodi-0.dtd"
   xmlns:inkscape="http://www.inkscape.org/namespaces/inkscape"
   inkscape:version="1.0 (4035a4fb49, 2020-05-01)"
   sodipodi:docname="splash.svg"
   id="svg896"
   viewBox="0 0 297.41 173.88"
   version="1.1"
   height="173.88mm"
   width="297.41mm">
  <defs
     id="defs900" />
  <sodipodi:namedview
     inkscape:document-rotation="0"
     inkscape:current-layer="streetLayer"
     inkscape:window-maximized="1"
     inkscape:window-y="-9"
     inkscape:window-x="-9"
     inkscape:cy="419.3591"
     inkscape:cx="1076.8095"
     inkscape:zoom="0.59669507"
     showgrid="false"
     id="namedview898"
     inkscape:window-height="1001"
     inkscape:window-width="1920"
     inkscape:pageshadow="2"
     inkscape:pageopacity="0"
     guidetolerance="10"
     gridtolerance="10"
     objecttolerance="10"
     borderopacity="1"
     bordercolor="#666666"
     pagecolor="#ffffff" />
  <style
     id="style857">
   #backWheel, #frontWheel {
    transform-box: fill-box;
    transform-origin: center;
    animation-name: spin;
    animation-duration: 4000ms;
    animation-timing-function: linear;
   animation-fill-mode: forwards;
 }
 #car{
    transform-box: fill-box;
    transform-origin: center;
    animation-name: move;
    animation-duration: 4000ms;
    animation-timing-function: linear;
   animation-fill-mode: forwards;
 }
 #dot, #segment{
   animation-name: blink;
   animation-duration: 500ms;
   animation-timing-function: linear;
   animation-iteration-count: 8;
 }
 #logo{
     transform-box: fill-box;
     transform-origin: center;
     animation: bounce 2000ms;
     animation-delay: 2000ms;
     animation-fill-mode: forwards;
 }
@keyframes blink {
  from {
     fill-opacity:1;
  }
  to {
     fill-opacity:0;
  }
}
 @keyframes spin {
  from {
    transform: rotate(0deg);
  }
  to {
    transform: rotate(360deg);
  }
}
@keyframes move { 
    0%   { transform: translate(0px,123.82521px); }
    34%   { transform: translate(86.7px,123.82521px); }
    35% { transform: translate(89.25px,124.42521px) rotate(2deg); }
    36% { transform: translate(91.8px,124.72521px) rotate(4deg); }
    37% { transform: translate(94.35px,125.22521px) rotate(6deg); }
    38% { transform: translate(96.9px,125.42521px) rotate(8deg);}
    39% { transform: translate(99.45px,125.72521px) rotate(6deg); }
    40% { transform: translate(102px,125.92521px) rotate(4deg); }
    41% { transform: translate(104.55px,126.22521px) rotate(2deg); }
    42% { transform: translate(107.1px,126.52521px)  rotate(0deg); }
    43% { transform: translate(109.65px,126.52521px) rotate(0deg); }
    44% { transform: translate(112.2px,126.52521px)  rotate(-2deg);}
    45% { transform: translate(114.75px,125.92521px) rotate(-4deg); }
    46% { transform: translate(117,3px,125.22521px) rotate(-6deg); }
    47% { transform: translate(119,85px,124.72521px) rotate(-8deg); }
    48% { transform: translate(122,4px,124.12521px) rotate(-6deg); }
    49% { transform: translate(124.95px,123.82521px) rotate(-4deg); }
    50% { transform: translate(127.5px,123.82521px) rotate(-2deg); }
    51% { transform: translate(130.05px,123.82521px) rotate(0deg); }
    100% { transform: translate(255px, 123.82521px); }
}


@keyframes bounce {
    0% {
        -webkit-transform: translateY(-1200px) scale(.6);
        transform: scale(.7);
        opacity: .7
    }
    80% {
        -webkit-transform: translateY(0) scale(.7);
        transform: translateY(50px) scale(.6);
        opacity: .7
    }
    to {
        -webkit-transform: scale(1);
        transform: translateY(50px) scale(1);
        opacity: 1
    }
}

</style>
  <metadata
     id="metadata859">
    <rdf:RDF>
      <cc:Work
         rdf:about="">
        <dc:format>image/svg+xml</dc:format>
        <dc:type
           rdf:resource="http://purl.org/dc/dcmitype/StillImage" />
        <dc:title />
      </cc:Work>
    </rdf:RDF>
  </metadata>
  <g
     transform="translate(0.09605222,-36.539)"
     id="skyLayer">
    <rect
       style="fill:#f4fcfc;stroke:#f4fcfc;stroke-width:0.093304;stroke-linecap:square;paint-order:markers fill stroke"
       height="154.12"
       width="297.20001"
       y="37.236225"
       x="0.0089390641"
       id="sky" />
  </g>
  <g
     fill="#d4ebd0"
     transform="translate(-.21476 -36.539)"
     id="mountainsLayer">
    <path
       style="paint-order:markers fill stroke"
       d="m0.53455 80.786v96.56h100.68a94.561 94.783 0 0 0 0.0996-1.9974 94.561 94.783 0 0 0-94.562-94.783 94.561 94.783 0 0 0-6.2146 0.2206z"
       id="leftMontains" />
    <path
       inkscape:connector-curvature="0"
       id="path864"
       frontMountais="path828"
       style="stroke-width:1.08150387;paint-order:markers fill stroke"
       d="M 226.63,111.31186 A 71.198,75.198009 0 0 0 156.024,177.348 h 141.18 a 71.198,75.198009 0 0 0 -70.577,-66.03614 z" />
  </g>
  <g
     transform="translate(-.21476 -123.54)"
     id="streetLayer">
    <path
       inkscape:connector-curvature="0"
       id="path852"
       d="M 106.73912,263.49989 V 234.45282"
       style="fill:none;stroke:#868686;stroke-width:0.99999994;stroke-linecap:round;stroke-linejoin:miter;stroke-miterlimit:4;stroke-dasharray:none;stroke-opacity:1" />
    <g
       transform="translate(0,123.82521)"
       id="car">
      <g
         id="g874"
         style="fill:#ffffff"
         transform="matrix(0.07637,-3.856302e-4,3.856302e-4,0.07637,4.7858401,107.61)">
        <path
           d="m 137.46,322.94 c 16.526,0 29.957,13.443 29.957,29.957 0,16.515 -13.432,29.957 -29.957,29.957 -16.515,0 -29.957,-13.443 -29.957,-29.957 -0.001,-16.515 13.442,-29.957 29.957,-29.957 z"
           id="path868"
           inkscape:connector-curvature="0" />
        <path
           d="m 374.54,322.94 c 16.515,0 29.957,13.443 29.957,29.957 0,16.515 -13.443,29.957 -29.957,29.957 -16.526,0 -29.957,-13.443 -29.957,-29.957 0,-16.515 13.432,-29.957 29.957,-29.957 z"
           id="path870"
           inkscape:connector-curvature="0" />
        <path
           d="m 208.37,118.25 v 83.064 H 53.05 l 65.46,-69.545 c 6.177,-6.569 22.256,-13.519 31.276,-13.519 z"
           id="path872"
           inkscape:connector-curvature="0" />
      </g>
      <path
         transform="translate(-0.21476,-123.54)"
         d="m 30.684724,240.87687 2.593591,5.50531 -12.28717,0.062 -0.03203,-6.34352 8.420556,-0.0425 c 0.409343,-0.002 1.128755,0.44932 1.304519,0.81868 z"
         id="path876"
         inkscape:connector-curvature="0"
         style="fill:#c5e2e2;stroke-width:0.07637098" />
      <path
         transform="translate(-0.21476,-123.54)"
         d="m 40.000324,248.84354 c -0.002,-0.39437 0.06017,-0.77319 0.176523,-1.12906 -5e-6,-8.4e-4 -2.922555,-0.95868 -2.922555,-0.95868 -0.652528,-0.21299 -1.427179,-0.89551 -1.723191,-1.51461 l -2.59326,-5.43963 c -0.590273,-1.23914 -2.196957,-2.24685 -3.569632,-2.23991 l -12.895074,0.0651 c -1.372675,0.007 -3.261223,0.83426 -4.197128,1.83907 L 6.5531593,245.608 c -0.4675326,0.50237 -0.8478446,1.47436 -0.8443789,2.1607 l 0.03955,7.83251 c 0.00693,1.37267 1.1357,2.49018 2.5084507,2.48324 l 1.7620849,-0.009 c -0.01566,-3.10147 2.485821,-5.62834 5.587283,-5.644 3.101462,-0.0157 5.628334,2.48582 5.643995,5.58728 l 6.875209,-0.0347 c -0.01566,-3.10146 2.485821,-5.62834 5.587283,-5.644 3.101462,-0.0157 5.628334,2.48582 5.643995,5.58729 l 2.083985,-0.0105 c 1.195495,-0.006 2.1682,-1.13407 2.161269,-2.50682 l -0.01523,-3.01662 c -1.97088,0.01 -3.576301,-1.57926 -3.586253,-3.55014 z m -30.8706643,-2.33995 4.9723613,-5.3364 c 0.469205,-0.50405 1.694478,-1.04103 2.383335,-1.0445 l 12.895075,-0.0651 c 0.409343,-0.002 1.128755,0.4494 1.304519,0.81869 l 2.593591,5.50531 -24.1489581,0.12194 z"
         id="path878"
         inkscape:connector-curvature="0"
         style="fill:#ed6951;stroke-width:0.07637098" />
      <path
         transform="translate(-0.21476,-123.54)"
         d="m 40.177153,247.71463 c 1.865034,0.61126 3.39898,2.71665 3.40889,4.67921 -1.97088,0.01 -3.576301,-1.57934 -3.586253,-3.55022 -0.002,-0.3943 0.06017,-0.77319 0.177363,-1.12899 z"
         id="path880"
         inkscape:connector-curvature="0"
         style="fill:#eec278;stroke-width:0.07637098" />
      <path
         transform="translate(-0.21476,-123.54)"
         d="m 15.649213,260.95995 c 1.605603,-0.008 2.90524,-1.32093 2.897132,-2.92654 -0.0081,-1.6056 -1.320936,-2.90524 -2.926539,-2.89713 -1.605602,0.008 -2.905239,1.32094 -2.897132,2.92654 0.0081,1.6056 1.320936,2.90524 2.926539,2.89713 z m -0.0231,-4.57571 c 0.917433,-0.005 1.667642,0.73804 1.672275,1.65548 0.0046,0.91743 -0.738039,1.66764 -1.655471,1.67227 -0.917433,0.005 -1.667643,-0.73804 -1.672275,-1.65547 -0.0046,-0.91743 0.737886,-1.66764 1.655471,-1.67228 z"
         id="path882"
         inkscape:connector-curvature="0"
         style="fill:#808080;stroke:#808080;stroke-width:0.07637098" />
      <path
         transform="translate(-0.21476,-123.54)"
         d="m 33.725605,255.04455 c -1.605603,0.008 -2.90524,1.32094 -2.897133,2.92654 0.0081,1.6056 1.320936,2.90524 2.926539,2.89713 1.605603,-0.008 2.90524,-1.32093 2.897132,-2.92654 -0.0081,-1.6056 -1.320936,-2.90524 -2.926538,-2.89713 z m 0.0231,4.57563 c -0.917433,0.005 -1.667642,-0.73804 -1.672275,-1.65547 -0.0046,-0.91743 0.738039,-1.66764 1.655472,-1.67227 0.917433,-0.005 1.667642,0.73804 1.672275,1.65547 0.0046,0.91743 -0.737886,1.66764 -1.655472,1.67227 z"
         id="path884"
         inkscape:connector-curvature="0"
         style="fill:#808080;stroke-width:0.07637098" />
      <path
         transform="translate(-0.21476,-123.54)"
         d="m 16.488814,240.74693 1.978288,-0.01 c 0.344658,-0.002 0.622532,-0.28251 0.620792,-0.62709 -0.0017,-0.34458 -0.282435,-0.62253 -0.627093,-0.62079 l -1.978289,0.01 c -0.867105,0.004 -2.245852,0.60834 -2.837127,1.24292 l -4.9722073,5.33677 c -0.1696951,0.18217 -0.2147884,0.44771 -0.1149645,0.67571 0.0999,0.228 0.3257859,0.37479 0.5746758,0.37354 l 24.148958,-0.12194 c 0.213148,-10e-4 0.410856,-0.11083 0.52458,-0.29111 0.113648,-0.1802 0.127553,-0.40602 0.03677,-0.59879 l -2.594751,-5.5082 c -0.278732,-0.58483 -1.222932,-1.17729 -1.870779,-1.17402 l -8.42132,0.0425 c -0.344657,0.002 -0.622532,0.28251 -0.620792,0.62709 l 0.02881,5.71981 -9.793689,0.0494 3.987609,-4.28016 c 0.351088,-0.37684 1.415574,-0.84312 1.930384,-0.84572 z m 5.098079,-0.0257 7.795086,-0.0394 c 0.183331,0.008 0.653975,0.30295 0.738551,0.46061 l 2.176716,4.62066 -10.684927,0.054 z"
         id="path886"
         inkscape:connector-curvature="0"
         style="fill:#ad0019;stroke-width:0.07637098" />
      <path
         id="frontWheel"
         d="m 36.354,130.14 c 0,0 0.67351,0.47648 0.94588,0.78161 0.27271,0.30551 0.67048,1.0295 0.67048,1.0295 m -4.4728,-3.1541 c 3.1015,-0.0157 5.6283,2.4858 5.644,5.5873 0.01566,3.1015 -2.4858,5.6283 -5.5873,5.644 -3.1015,0.0157 -5.6283,-2.4858 -5.644,-5.5873 -0.0157,-3.1015 2.4858,-5.6283 5.5873,-5.644 z m 2.3162,5.6041 c -0.0064,-1.2612 -1.0382,-2.2826 -2.2994,-2.2763 -1.2621,0.006 -2.2826,1.0382 -2.2763,2.2994 0.0064,1.2612 1.0374,2.2826 2.2994,2.2763 1.2612,-0.006 2.2826,-1.0381 2.2763,-2.2994 z"
         inkscape:connector-curvature="0"
         style="stroke:#808080;stroke-width:0.26499999;stroke-linecap:round" />
      <path
         id="backWheel"
         d="m 18.164,130.12 c 0,0 0.67351,0.47648 0.94588,0.78161 0.27271,0.30551 0.67048,1.0295 0.67048,1.0295 m -4.389,-3.0386 c 3.1015,-0.0157 5.6283,2.4858 5.644,5.5873 0.01566,3.1015 -2.4858,5.6283 -5.5873,5.644 -3.1015,0.0157 -5.6283,-2.4858 -5.644,-5.5873 -0.015661,-3.1015 2.4857,-5.6283 5.5873,-5.644 z m 2.3162,5.6041 c -0.0064,-1.2612 -1.0374,-2.2826 -2.2994,-2.2763 -1.2612,0.006 -2.2826,1.0382 -2.2763,2.2994 0.0064,1.2612 1.0382,2.2826 2.2994,2.2763 1.262,-0.006 2.2826,-1.0381 2.2763,-2.2994 z"
         inkscape:connector-curvature="0"
         style="stroke:#808080;stroke-width:0.26499999;stroke-linecap:round" />
    </g>
    <path
       fill="#b3b3b3"
       stroke="#868686"
       stroke-width=".83957"
       stroke-linecap="square"
       style="paint-order:markers fill stroke"
       stroke-miterlimit="1.9"
       d="m0.53455 264.35 118.3-0.39963c1.7787-6e-3 1.5259 1.1989 3.3046 1.1989 1.7788 0 2.0929 1.1989 3.8716 1.1989s2.1401 0.86589 3.9189 0.86589 3.1796-0.36634 4.9583-0.36634c1.6196 0 1.6598 0.33304 3.7856 0.33304s2.0355 0.16649 3.826-0.49955c2.3278-0.86589 1.1443-0.4603 2.3278-0.86589 1.4577-0.49954 0.98719-1.3321 2.6927-1.3321 44.174 0 149.69-0.13321 149.69-0.13321v32.654h-296.67z"
       id="street" />
    <path
       inkscape:transform-center-y="-1.9481288"
       d="m 113.52018,233.85511 -13.49699,0 6.74849,-11.68874 z"
       inkscape:randomized="0"
       inkscape:rounded="0"
       inkscape:flatsided="true"
       sodipodi:arg2="1.5707963"
       sodipodi:arg1="0.52359878"
       sodipodi:r2="3.896246"
       sodipodi:r1="7.7924919"
       sodipodi:cy="229.95886"
       sodipodi:cx="106.77168"
       sodipodi:sides="3"
       id="path854"
       style="opacity:1;fill:#ffffff;fill-opacity:1;stroke:#ad0019;stroke-width:0.99958694;stroke-linecap:round;stroke-linejoin:miter;stroke-miterlimit:4;stroke-dasharray:none;stroke-opacity:1;paint-order:markers fill stroke"
       sodipodi:type="star" />
    <g
       inkscape:label="Livello 1"
       id="layer1"
       transform="translate(242.19048,93.332598)" />
    <g
       style="fill:#ffcc00;fill-opacity:1"
       transform="matrix(0.88045281,0,0,0.88045281,12.759718,27.892849)"
       id="exclamativeDot">
      <path
         style="color:#000000;font-style:normal;font-variant:normal;font-weight:normal;font-stretch:normal;font-size:medium;line-height:normal;font-family:sans-serif;font-variant-ligatures:normal;font-variant-position:normal;font-variant-caps:normal;font-variant-numeric:normal;font-variant-alternates:normal;font-feature-settings:normal;text-indent:0;text-align:start;text-decoration:none;text-decoration-line:none;text-decoration-style:solid;text-decoration-color:#000000;letter-spacing:normal;word-spacing:normal;text-transform:none;writing-mode:lr-tb;direction:ltr;text-orientation:mixed;dominant-baseline:auto;baseline-shift:baseline;text-anchor:start;white-space:normal;shape-padding:0;clip-rule:nonzero;display:inline;overflow:visible;visibility:visible;opacity:1;isolation:auto;mix-blend-mode:normal;color-interpolation:sRGB;color-interpolation-filters:linearRGB;solid-color:#000000;solid-opacity:1;vector-effect:none;fill:#ffcc00;fill-opacity:1;fill-rule:nonzero;stroke:none;stroke-width:0.85212046;stroke-linecap:round;stroke-linejoin:miter;stroke-miterlimit:4;stroke-dasharray:none;stroke-dashoffset:0;stroke-opacity:1;color-rendering:auto;image-rendering:auto;shape-rendering:auto;text-rendering:auto;enable-background:accumulate"
         d="m 106.76527,224.06218 c -0.25028,0.003 -0.6276,0.18536 -0.62386,0.40635 l 0.17758,5.9919 c 0.0156,0.53373 0.89126,0.53373 0.90708,0 l 0.17756,-5.9919 c 0.003,-0.22601 -0.38238,-0.41003 -0.63836,-0.40635 z"
         id="segment"
         inkscape:connector-curvature="0"
         sodipodi:nodetypes="ccsscc" />
      <circle
         style="opacity:1;fill:#ffcc00;fill-opacity:1;stroke:none;stroke-width:0;stroke-linecap:round;stroke-linejoin:miter;stroke-miterlimit:4;stroke-dasharray:none;stroke-opacity:1;paint-order:markers fill stroke"
         id="dot"
         cx="106.73415"
         cy="231.56572"
         r="0.58736849" />
    </g>
    <g
       style="font-style:normal;font-variant:normal;font-weight:normal;font-stretch:normal;font-size:10.5833px;line-height:1.25;font-family:Error;-inkscape-font-specification:Error;letter-spacing:0px;word-spacing:0px;fill:#af4448;fill-opacity:1;stroke:none;stroke-width:0.264583"
       id="logo"
       aria-label="[YAHM]">
      <path
         id="path76"
         style="font-style:normal;font-variant:normal;font-weight:normal;font-stretch:normal;font-size:22.5778px;font-family:'Beauty and the Beast';-inkscape-font-specification:'Beauty and the Beast';fill:#af4448;fill-opacity:1;stroke-width:0.264583"
         d="m 126.17548,112.62874 q -0.90311,0.76765 -1.76107,1.46756 -0.83538,0.69991 -1.71591,1.35467 -0.85796,0.67733 -1.78365,1.28693 -0.90311,0.63218 -1.91911,1.24178 -0.13547,-0.11289 -0.38382,-0.27093 -0.22578,-0.15805 -0.45156,-0.33867 -0.2032,-0.18062 -0.38382,-0.38382 -0.15805,-0.2032 -0.15805,-0.4064 l 0.0226,-0.24836 q 0.2032,-0.15804 0.74507,-0.56445 0.56444,-0.4064 1.28693,-0.92569 0.72249,-0.51928 1.53529,-1.08373 0.83538,-0.56444 1.58045,-1.016 0.76765,-0.47413 1.37725,-0.76765 0.6096,-0.29351 0.90311,-0.29351 0.27093,0.29351 0.51929,0.49671 0.27093,0.2032 0.58702,0.45156 z m -1.51271,-9.61814 q -0.13547,0 -0.65476,-0.29351 -0.51929,-0.29352 -1.2192,-0.74507 -0.67733,-0.47414 -1.49013,-1.016 -0.79023,-0.56445 -1.51272,-1.083737 -0.69991,-0.519289 -1.24178,-0.92569 -0.54186,-0.4064 -0.74506,-0.587023 0,-0.293511 0.15804,-0.541867 0.15805,-0.270933 0.36125,-0.474134 0.22577,-0.2032 0.45155,-0.361244 0.24836,-0.158045 0.38382,-0.270934 1.01601,0.609601 1.91912,1.241779 0.92569,0.632178 1.78364,1.286935 0.88054,0.654756 1.71592,1.354665 0.85795,0.69991 1.76107,1.46756 -0.31609,0.24836 -0.65476,0.45156 -0.31609,0.2032 -1.016,0.49671 z m -0.13547,5.64445 q -1.016,0 -2.032,-0.11289 -1.016,-0.13547 -2.00943,-0.29351 -0.99342,-0.15805 -2.00942,-0.27094 -0.99342,-0.13546 -2.00942,-0.13546 -0.2032,-0.18063 -0.45156,-0.51929 -0.24836,-0.33867 -0.24836,-0.63218 0,-0.2032 0.13547,-0.31609 0.13547,-0.13547 0.33867,-0.2032 0.2032,-0.0677 0.4064,-0.0903 0.22578,-0.0226 0.38382,-0.0226 0.83538,0 1.96427,0.0903 1.15147,0.0677 2.32551,0.2032 1.19663,0.13547 2.28036,0.36125 1.08374,0.2032 1.78365,0.47413 -0.0226,1.08373 -0.85796,1.46756 z" />
      <path
         id="path78"
         style="font-style:normal;font-variant:normal;font-weight:normal;font-stretch:normal;font-size:22.5778px;font-family:'Beauty and the Beast';-inkscape-font-specification:'Beauty and the Beast';fill:#af4448;fill-opacity:1;stroke-width:0.264583"
         d="m 128.15033,119.1763 q -0.31609,0 -0.65475,-0.0677 -0.31609,-0.0452 -0.63218,-0.0903 -0.0903,-0.18062 -0.0677,-0.4064 0.0226,-0.2032 0.0226,-0.38382 0,-0.90312 0.24836,-2.07716 0.27093,-1.17405 0.65475,-2.43841 0.40641,-1.26435 0.85796,-2.48355 0.47413,-1.24178 0.85796,-2.23521 0.4064,-1.016 0.65475,-1.69333 0.27094,-0.67733 0.27094,-0.8128 0,-0.11289 -0.22578,-0.69991 -0.2032,-0.6096 -0.51929,-1.44498 -0.31609,-0.85796 -0.69991,-1.8288 -0.38382,-0.99343 -0.72249,-1.89654 -0.33867,-0.903112 -0.6096,-1.625601 -0.24836,-0.72249 -0.31609,-1.038579 0.0903,-0.02258 0.22578,-0.112889 0.13546,-0.09031 0.24835,-0.180622 0.13547,-0.09031 0.24836,-0.158045 0.11289,-0.06773 0.15804,-0.06773 0.22578,0 0.54187,0.428978 0.31609,0.4064 0.65476,1.061156 0.36124,0.654757 0.72249,1.444975 0.36124,0.79023 0.65475,1.51272 0.29351,0.72249 0.49671,1.30951 0.22578,0.58702 0.29352,0.8128 l 0.0677,-0.0452 q 0.22578,-0.47413 0.6096,-1.4224 0.38382,-0.94826 0.97084,-2.4384 1.10632,-2.889957 1.55787,-3.612447 0.42898,-0.699912 1.51272,-0.406401 1.10631,0.270934 -0.0226,3.635026 l -1.67076,5.125162 q -0.67733,2.14489 -1.46756,4.40267 -0.79022,2.25778 -1.60302,4.24463 -0.8128,1.98684 -1.58045,3.49956 -0.74506,1.51271 -1.35466,2.19004 z" />
      <path
         id="path80"
         style="font-style:normal;font-variant:normal;font-weight:normal;font-stretch:normal;font-size:22.5778px;font-family:'Beauty and the Beast';-inkscape-font-specification:'Beauty and the Beast';fill:#af4448;fill-opacity:1;stroke-width:0.264583"
         d="m 143.4348,97.388725 q 0.15804,0 0.47413,0.02258 0.33867,0 0.47414,0.04515 0.24835,0.09031 0.49671,0.903112 0.27093,0.790223 0.54187,2.05458 0.27093,1.26436 0.51929,2.86738 0.24835,1.60302 0.47413,3.31894 0.22578,1.69333 0.4064,3.38667 0.18062,1.67076 0.31609,3.09316 0.13547,1.4224 0.2032,2.4384 0.0903,1.03858 0.0903,1.4224 -0.18062,0.0677 -0.42898,0.13547 -0.24835,0.0903 -0.42898,0.0903 h -0.29351 q -0.13546,-0.18062 -0.27093,-0.79022 -0.11289,-0.60961 -0.22578,-1.30952 -0.0903,-0.67733 -0.15804,-1.28693 -0.0677,-0.63218 -0.0903,-0.85796 -0.18063,-1.2192 -0.42898,-2.41582 -0.22578,-1.19663 -0.33867,-2.41583 v -0.13546 q -0.72249,0 -1.44498,0.11288 -0.72249,0.0903 -1.4224,0.15805 -0.79022,1.53529 -1.39982,3.18347 -0.58703,1.6256 -1.19663,3.27378 -0.58702,1.67076 -1.28693,3.27378 -0.67734,1.6256 -1.6256,3.09316 -0.2032,0.0452 -0.42898,0.0903 -0.2032,0.0677 -0.4064,0.0677 -0.63218,0 -0.83538,-0.42897 -0.2032,-0.42898 -0.2032,-0.97085 0,-0.69991 0.31609,-2.032 0.31609,-1.33209 0.85795,-3.048 0.51929,-1.69334 1.21921,-3.63503 0.69991,-1.96427 1.44497,-3.88338 0.76765,-1.91911 1.53529,-3.70276 0.79023,-1.78365 1.46756,-3.13832 0.67734,-1.354663 1.2192,-2.167464 0.54187,-0.812801 0.85796,-0.812801 z m 0.27093,4.380095 q 0,0.0451 -0.0903,0.4064 -0.0903,0.36124 -0.24835,0.90311 -0.13547,0.51929 -0.31609,1.15147 -0.15805,0.63218 -0.31609,1.19662 -0.15805,0.56445 -0.29351,0.99343 -0.11289,0.42897 -0.15805,0.58702 0.0452,0.0226 0.15805,0.0226 0.24835,0 0.45155,-0.0226 0.22578,-0.0452 0.45156,-0.0677 0.27093,-0.0226 0.56444,-0.0452 0.29351,-0.0226 0.56445,-0.0226 0.0677,0 0.0677,-0.0226 0,-0.0903 -0.0677,-0.2032 0,-0.88053 -0.22578,-1.80622 -0.2032,-0.92569 -0.33867,-1.80622 0,-0.0677 -0.0226,-0.24836 0,-0.18062 -0.0452,-0.38382 -0.0226,-0.2032 -0.0677,-0.36125 -0.0226,-0.18062 -0.0677,-0.2032 z" />
      <path
         id="path82"
         style="font-style:normal;font-variant:normal;font-weight:normal;font-stretch:normal;font-size:22.5778px;font-family:'Beauty and the Beast';-inkscape-font-specification:'Beauty and the Beast';fill:#af4448;fill-opacity:1;stroke-width:0.264583"
         d="m 148.48164,119.83106 q -0.31609,-0.6096 -0.47413,-1.60302 -0.13547,-0.97085 -0.2032,-2.05458 -0.0452,-1.08374 -0.0452,-2.1449 0,-1.03857 0,-1.78364 0,-3.83823 0.29352,-7.51841 0.31609,-3.70276 0.65475,-7.518407 0.24836,-0.06773 0.51929,-0.112889 0.27094,-0.04516 0.51929,-0.04516 l 0.47413,0.02258 q 0.45156,1.354668 0.63218,2.777069 0.2032,1.422405 0.33867,2.844805 0.0903,1.016 0.18062,2.032 0.0903,1.016 0.11289,2.032 v 0.15805 l 0.11289,-0.13547 2.52871,-0.27093 q 0.0452,-0.97085 0.0677,-2.03201 0.0226,-1.06115 0.0903,-2.12231 0.0677,-1.06116 0.18062,-2.09973 0.13547,-1.038583 0.36125,-2.009429 0.24835,-0.04515 0.47413,-0.06773 0.22578,-0.04516 0.42898,-0.04516 0.11289,0 0.27093,0 0.18062,0 0.29351,0.04516 0.33867,1.038579 0.49671,2.144892 0.18063,1.10631 0.22578,2.2352 0.0677,1.12889 0.0677,2.25778 0,1.10631 0,2.19005 0,0.51929 -0.0452,1.58044 -0.0452,1.03858 -0.13547,2.3481 -0.0677,1.28693 -0.18062,2.68675 -0.0903,1.37725 -0.22578,2.57387 -0.11289,1.19663 -0.24835,2.05458 -0.13547,0.88054 -0.27094,1.12889 -0.31609,0.0677 -0.65475,0.11289 -0.33867,0.0452 -0.67734,0.0452 -0.0903,0 -0.11289,-0.13547 -0.0226,-0.11289 -0.0452,-0.15804 -0.13547,-0.51929 -0.18062,-1.28694 -0.0452,-0.74507 -0.0452,-1.28693 0,-2.05458 -0.13547,-4.01885 -0.11288,-1.98685 -0.15804,-4.04143 -0.58702,0.0452 -1.26436,0.13547 -0.67733,0.0677 -1.26435,0.0226 -0.0903,0.51929 -0.13547,1.49013 -0.0226,0.97085 -0.0677,2.14489 -0.0452,1.17405 -0.13547,2.41583 -0.0677,1.26435 -0.22578,2.37067 -0.15804,1.10631 -0.45155,1.91911 -0.27094,0.8128 -0.72249,1.10631 -0.31609,0 -0.63218,-0.13547 -0.29351,-0.13546 -0.58703,-0.24835 z" />
      <path
         id="path84"
         style="font-style:normal;font-variant:normal;font-weight:normal;font-stretch:normal;font-size:22.5778px;font-family:'Beauty and the Beast';-inkscape-font-specification:'Beauty and the Beast';fill:#af4448;fill-opacity:1;stroke-width:0.264583"
         d="m 167.25826,119.10857 q -0.0452,-0.97085 -0.0903,-1.94169 -0.0226,-0.94827 -0.0226,-1.89654 0,-3.20604 0.33867,-6.34436 0.36124,-3.16089 0.94826,-6.29921 -1.35466,1.82881 -2.48355,3.81565 -1.10632,1.98685 -2.39325,3.88338 -0.2032,0 -0.4064,0.0903 -0.2032,0.0903 -0.33867,0.0903 -0.11289,0 -0.38382,-0.47414 -0.27093,-0.47413 -0.56445,-1.06115 -0.29351,-0.58703 -0.51928,-1.10632 -0.22578,-0.54186 -0.27094,-0.65475 0,0.56444 -0.0226,1.49013 -0.0226,0.92569 -0.0677,2.03201 -0.0452,1.08373 -0.13547,2.25778 -0.0677,1.17404 -0.18062,2.2352 -0.11289,1.06115 -0.27093,1.91911 -0.15805,0.85796 -0.36125,1.30951 l -0.29351,0.0677 -0.18062,-0.0677 q -0.24836,0 -0.47413,0.15805 -0.22578,0.15804 -0.47414,0.15804 -0.22578,0 -0.38382,-0.36124 -0.13547,-0.36125 -0.24836,-0.92569 -0.0903,-0.54187 -0.15804,-1.19663 -0.0452,-0.65475 -0.0903,-1.26435 -0.0226,-0.6096 -0.0452,-1.08374 0,-0.47413 0,-0.65475 0,-0.72249 0.0226,-1.98685 0.0452,-1.28693 0.11289,-2.82222 0.0677,-1.55787 0.18062,-3.22863 0.11289,-1.67076 0.29351,-3.18347 0.18062,-1.51271 0.4064,-2.709336 0.24836,-1.196624 0.56445,-1.806224 0.0677,-0.112889 0.13546,-0.225778 0.0677,-0.135467 0.24836,-0.135467 0.22578,0 0.45156,0.06773 0.22577,0.06773 0.45155,0.112889 0.0452,0.135467 0.22578,0.903112 0.2032,0.767645 0.47413,1.873961 0.27094,1.10631 0.56445,2.39324 0.31609,1.28694 0.58702,2.46098 0.29351,1.15147 0.51929,2.05458 0.22578,0.90312 0.31609,1.2192 0.85796,-1.24177 1.53529,-2.57386 0.67734,-1.35467 1.35467,-2.68676 0.67733,-1.33209 1.46756,-2.59645 0.79022,-1.264357 1.91911,-2.393247 h 0.0452 q 0.22578,0 0.56445,0.06773 0.33867,0.04515 0.58702,0.09031 0.18063,0.654756 0.27094,1.354668 0.0903,0.677334 0.0903,1.354664 0,0.58703 -0.0226,1.64818 0,1.03858 -0.0452,2.37067 -0.0226,1.30952 -0.0903,2.82223 -0.0677,1.51271 -0.18062,3.048 -0.11289,1.51271 -0.27093,2.95769 -0.15805,1.44498 -0.38383,2.61903 -0.22577,1.19662 -0.51929,2.032 -0.29351,0.85796 -0.65475,1.19662 l -0.4064,0.0226 q -0.36125,0 -0.69991,-0.0903 -0.33867,-0.0903 -0.54187,-0.4064 z" />
      <path
         id="path86"
         style="font-style:normal;font-variant:normal;font-weight:normal;font-stretch:normal;font-size:22.5778px;font-family:'Beauty and the Beast';-inkscape-font-specification:'Beauty and the Beast';fill:#af4448;fill-opacity:1;stroke-width:0.264583"
         d="m 173.31228,108.65505 q -0.83538,-0.38383 -0.85795,-1.46756 0.69991,-0.27093 1.78364,-0.47413 1.08374,-0.22578 2.25778,-0.36125 1.19663,-0.13546 2.32552,-0.2032 1.15146,-0.0903 1.98684,-0.0903 0.15805,0 0.36125,0.0226 0.22578,0.0226 0.42898,0.0903 0.2032,0.0677 0.33866,0.2032 0.13547,0.11289 0.13547,0.31609 0,0.29351 -0.24836,0.63218 -0.24835,0.33866 -0.45155,0.51929 -1.016,0 -2.032,0.13546 -0.99343,0.11289 -1.98685,0.27094 -0.99342,0.15804 -2.00942,0.29351 -1.01601,0.11289 -2.03201,0.11289 z m -0.13546,-5.64445 q -0.69992,-0.29351 -1.03858,-0.49671 -0.31609,-0.2032 -0.63218,-0.45156 0.90311,-0.76765 1.73849,-1.46756 0.85796,-0.699909 1.71591,-1.354665 0.88054,-0.654757 1.78365,-1.286935 0.92569,-0.632178 1.94169,-1.241779 0.13547,0.112889 0.36124,0.270934 0.24836,0.158044 0.45156,0.361244 0.22578,0.203201 0.38382,0.474134 0.15805,0.248356 0.15805,0.541867 -0.2032,0.180623 -0.74507,0.587023 -0.54187,0.406401 -1.26436,0.92569 -0.72249,0.519287 -1.51271,1.083737 -0.79022,0.54186 -1.49013,1.016 -0.69992,0.45155 -1.2192,0.74507 -0.49672,0.29351 -0.63218,0.29351 z m -1.51272,9.61814 q 0.31609,-0.24836 0.56445,-0.45156 0.27093,-0.2032 0.54187,-0.49671 0.29351,0 0.90311,0.31609 0.6096,0.29351 1.35467,0.76765 0.76764,0.45155 1.58044,1.016 0.8128,0.54187 1.53529,1.06115 0.72249,0.51929 1.26436,0.92569 0.56444,0.40641 0.79022,0.56445 l 0.0226,0.24836 q 0,0.2032 -0.18062,0.4064 -0.15805,0.2032 -0.38382,0.38382 -0.2032,0.18062 -0.45156,0.33867 -0.22578,0.15804 -0.36125,0.27093 -1.016,-0.6096 -1.94169,-1.24178 -0.90311,-0.6096 -1.78364,-1.28693 -0.85796,-0.65476 -1.71592,-1.35467 -0.83537,-0.69991 -1.73849,-1.46756 z" />
    </g>
  </g>
</svg>
