<?xml version="1.0" standalone="no"?>
<!DOCTYPE svg PUBLIC "-//W3C//DTD SVG 20010904//EN"
 "http://www.w3.org/TR/2001/REC-SVG-20010904/DTD/svg10.dtd">
<svg version="1.0" xmlns="http://www.w3.org/2000/svg"
 width="756.000000pt" height="756.000000pt" viewBox="0 0 756.000000 756.000000"
 preserveAspectRatio="xMidYMid meet">
<metadata>
Created by potrace 1.11, written by Peter Selinger 2001-2013
</metadata>
<g transform="translate(0.000000,756.000000) scale(0.100000,-0.100000)"
fill="#000000" stroke="none">
<path d="M5292 7495 c-267 -48 -527 -203 -693 -411 l-51 -64 -1247 0 -1247 0
-93 -607 c-52 -335 -99 -642 -106 -685 l-12 -76 199 -158 c109 -86 195 -160
191 -164 -4 -4 -109 -36 -231 -70 -123 -35 -226 -68 -228 -74 -2 -6 -89 -569
-194 -1251 -104 -682 -268 -1751 -364 -2375 -96 -624 -172 -1138 -169 -1143 2
-4 1280 -7 2839 -7 l2834 0 0 30 c0 16 -14 116 -30 222 -17 106 -39 254 -51
328 -11 74 -27 176 -35 225 -7 50 -61 401 -119 780 -58 380 -122 800 -143 934
-21 136 -42 245 -48 248 -6 2 -168 -43 -360 -101 -192 -57 -350 -103 -353
-101 -2 2 89 154 203 337 l206 333 -48 45 c-26 25 -86 82 -134 127 l-88 81
143 139 c78 77 169 164 201 195 l60 55 -18 119 c-9 66 -25 171 -35 234 l-18
115 37 50 c222 302 437 708 547 1030 58 172 83 323 83 503 0 140 -3 169 -29
272 -47 187 -119 327 -246 479 -171 205 -439 358 -709 406 -108 18 -341 19
-444 0z m-1217 -1540 l0 -320 -192 -3 -193 -2 0 325 0 325 193 -2 192 -3 0
-320z m5 -1095 l0 -320 -195 0 -195 0 0 320 0 320 195 0 195 0 0 -320z m-5
-1095 l0 -320 -192 -3 -193 -2 0 318 c0 175 3 322 7 326 4 3 90 5 192 4 l186
-3 0 -320z m3 -1096 l2 -316 -184 -8 c-102 -4 -190 -4 -195 0 -7 4 -11 113
-11 326 l0 319 193 -2 192 -3 3 -316z m2 -1099 l0 -320 -195 0 -195 0 0 320 0
320 195 0 195 0 0 -320z"/>
</g>
</svg>
